<svg width="573" height="177" viewBox="0 0 573 177" fill="none" xmlns="http://www.w3.org/2000/svg">
<path d="M450.8 153.52V142.48H457.12C458.76 142.48 460.08 143 461.08 144C462.04 145.04 462.56 146.32 462.56 147.92C462.56 149.56 462.04 150.88 461 151.96C459.96 153 458.68 153.52 457.12 153.52H450.8ZM465.36 148C465.36 145.6 464.48 143.64 462.8 142.08C461.12 140.56 459.12 139.8 456.72 139.8H448V167H450.8V156.24H456.72C459.12 156.24 461.16 155.48 462.8 153.96C464.48 152.36 465.36 150.4 465.36 148ZM475.972 164.2V139.8H473.172V167H474.572H475.972H485.692V164.2H475.972ZM497.9 157L502.86 144.48L507.78 157H497.9ZM514.78 167L502.86 137.92L490.9 167H493.94L496.86 159.6H508.82L511.74 167H514.78ZM545.429 158.68H542.349C541.389 160.44 540.069 161.88 538.389 162.92C536.709 164 534.829 164.52 532.829 164.52C529.829 164.52 527.269 163.44 525.149 161.2C523.069 159.08 522.069 156.48 522.069 153.44C522.069 150.4 523.069 147.8 525.149 145.64C526.109 144.64 527.269 143.84 528.589 143.24C529.869 142.64 531.149 142.32 532.429 142.32C533.669 142.32 534.749 142.48 535.709 142.76C538.629 143.64 540.829 145.4 542.309 148.08H545.389C544.349 145.52 542.709 143.44 540.429 141.84C538.109 140.24 535.589 139.44 532.829 139.44C529.029 139.44 525.829 140.84 523.189 143.6C521.949 144.88 520.989 146.4 520.309 148.08C519.589 149.76 519.269 151.56 519.269 153.44C519.269 157.28 520.549 160.52 523.189 163.24C525.829 166.04 529.029 167.4 532.829 167.4C535.589 167.4 538.109 166.6 540.469 165C542.749 163.4 544.389 161.32 545.429 158.68ZM569.769 167V164.4H556.409V154.72H569.369V152.08H556.409V142.4H569.769V139.8H553.609V167H569.769Z" fill="#B4555A"/>
<path d="M0.8 13.32H7.4V37.92H10.2V13.32H16.8V10.72H10.2H7.4H0.8V13.32ZM27.4172 38V25.84H39.7772V38H42.5772V10.8H39.7772V23.04H27.4172V10.8H24.6172V38H27.4172ZM68.7225 38V35.4H55.3625V25.72H68.3225V23.08H55.3625V13.4H68.7225V10.8H52.5625V38H68.7225Z" fill="#B4555A"/>
<path d="M79.9225 80.646C79.826 79.7775 79.826 78.8125 79.7295 78.0405C79.826 77.944 79.9225 77.944 80.019 77.944C80.1155 77.944 80.212 78.0405 80.212 78.2335C80.1155 79.102 80.019 79.874 79.9225 80.646C80.8875 79.488 81.2735 78.2335 81.2735 76.786C81.2735 75.5315 81.0805 74.47 81.0805 73.505C81.0805 71.8645 81.756 70.224 81.756 67.715C81.756 62.89 80.984 58.451 80.984 53.3365C80.984 50.731 77.7995 48.029 75.194 48.029C70.755 48.029 72.7815 51.31 72.0095 55.556C71.0445 60.2845 70.8515 65.1095 70.8515 69.9345C70.8515 71.2855 71.4305 72.733 71.4305 73.9875C71.4305 74.47 71.2375 75.049 71.2375 75.628C71.2375 76.593 71.527 77.751 71.527 78.8125C71.527 82.4795 70.948 86.629 70.755 90.682C70.755 91.9365 71.6235 93.0945 71.6235 93.8665C71.6235 95.4105 70.948 97.3405 70.948 99.4635C70.948 100.621 71.4305 101.586 71.4305 102.648C71.4305 103.999 70.8515 105.446 70.8515 106.797C70.8515 111.14 71.4305 117.316 75.0975 118.088C76.4485 118.378 77.703 118.281 79.054 118.378C79.5365 117.895 80.598 118.088 81.0805 118.088C83.3 118.088 84.9405 109.21 85.616 105.929C85.7125 105.446 85.9055 104.964 85.9055 104.481C85.809 104.192 85.809 103.902 85.809 103.709C85.809 101.683 86.774 98.3055 87.16 98.3055C88.4145 98.3055 92.6605 104.867 94.0115 106.894C96.038 109.982 98.2575 113.166 99.8015 115.965C100.574 117.509 102.214 118.474 102.6 120.115C103.372 121.755 108.004 125.905 109.162 126.194C109.741 126.291 110.32 126.387 110.899 126.387C112.154 126.387 113.119 125.519 113.119 124.361C113.119 123.878 112.732 123.203 112.732 122.72C112.732 122.238 113.601 121.562 113.601 120.597C113.601 120.501 111.092 117.22 110.224 115.676C109.741 115 109.934 113.842 109.452 113.359C107.329 111.622 106.846 108.534 104.82 106.411C104.048 105.639 104.144 103.999 103.179 103.323C99.9945 100.718 98.6435 95.507 96.617 92.7085C96.038 92.033 94.494 90.489 94.494 89.8135C94.494 87.208 99.705 86.9185 100.381 84.0235C100.767 82.383 103.565 80.3565 104.144 78.0405C104.723 75.628 107.039 72.0575 107.039 71.0925C107.329 69.838 108.487 71.0925 108.487 68.5835C108.487 66.8465 109.934 65.6885 109.934 64.3375C109.934 62.118 110.417 59.802 110.417 57.872C110.417 55.749 109.934 53.047 109.838 50.6345C108.004 48.415 105.399 46.292 103.179 46.292C98.354 46.292 97.2925 49.2835 95.266 50.924C93.336 52.468 93.143 54.8805 91.213 56.328C89.669 57.5825 90.1515 60.0915 89.1865 61.153C87.8355 62.6005 88.511 64.82 87.4495 65.8815C86.002 67.329 86.195 73.2155 84.9405 75.049C83.3965 77.2685 84.3615 80.26 81.37 82.6725C80.984 81.5145 80.8875 81.3215 79.9225 80.646ZM102.89 57.1965C102.504 60.2845 102.504 63.083 101.442 65.6885C101.249 66.0745 101.153 66.557 101.153 67.0395C100.67 69.7415 98.4505 71.575 98.2575 73.6015C98.2575 75.049 96.5205 76.6895 96.5205 78.523C96.5205 78.8125 96.617 79.102 96.617 79.3915C96.617 80.9355 94.3975 79.874 93.915 81.3215C92.8535 81.804 90.9235 83.155 89.862 83.155C89.1865 83.155 88.897 81.611 88.897 80.839C88.897 79.7775 89.476 79.681 90.1515 78.33C90.9235 75.9175 91.792 73.505 92.178 70.996C92.178 70.7065 92.2745 70.3205 92.4675 70.031C94.7835 66.557 94.108 61.925 96.038 59.223C97.196 57.679 99.6085 53.1435 101.249 53.1435C102.986 53.1435 102.793 56.135 102.89 57.1965ZM98.933 80.453C98.8365 80.453 98.6435 80.3565 98.6435 80.3565C98.8365 79.874 98.547 79.681 99.4155 79.681C99.4155 79.9705 99.126 80.067 98.933 80.453ZM122.014 80.9355C122.11 81.3215 122.207 81.7075 122.207 82.0935C122.207 82.4795 122.014 82.383 121.917 82.4795C121.821 82.383 121.724 82.19 121.724 81.997C121.724 81.611 121.917 81.225 122.11 80.9355C120.663 82.962 121.049 86.05 119.698 87.6905C118.443 89.2345 118.54 93.6735 118.54 95.6035C118.54 96.3755 119.215 97.1475 119.215 97.823C119.215 98.3055 118.733 98.8845 118.733 99.367C118.733 100.042 119.119 100.621 119.119 101.2C119.119 101.586 118.829 101.972 118.829 102.262C118.829 103.034 119.891 103.806 119.891 104.674C119.891 105.157 119.698 105.639 119.698 106.025C119.698 106.315 120.856 109.692 122.496 110.561C122.882 110.754 123.172 111.236 123.365 111.719C125.391 114.71 127.997 114.614 131.76 115C132.339 114.614 132.918 114.228 133.594 113.842C133.883 114.035 134.269 114.131 134.559 114.131C136.199 114.131 142.568 106.315 144.112 105.736C145.753 105.157 147.2 100.815 149.902 99.4635C150.964 99.4635 151.446 97.9195 151.446 97.1475C151.446 96.1825 156.657 91.84 156.657 91.84C157.622 91.1645 160.517 90.0065 160.517 88.752C160.517 87.98 159.552 87.6905 158.973 87.6905C155.982 87.6905 151.929 92.3225 150.867 93.2875C145.849 97.7265 140.735 101.779 135.524 106.025C134.462 106.894 132.725 108.052 131.278 108.052C127.804 108.052 127.514 99.946 127.514 95.6035C127.514 94.0595 127.611 91.3575 129.444 91.3575C130.795 91.3575 132.146 91.7435 133.497 91.7435C138.901 91.7435 144.402 86.7255 145.463 84.699C145.946 83.734 146.621 83.155 147.297 82.4795C148.069 81.611 148.455 80.067 149.42 79.5845C150.385 78.909 150.771 77.944 150.771 76.786C150.771 76.207 150.674 75.628 150.674 74.9525C150.674 74.663 150.771 74.277 150.771 73.9875C150.771 68.7765 142.568 65.1095 137.55 65.1095C136.006 65.1095 135.331 66.557 134.076 67.0395C131.953 67.908 130.699 69.838 129.251 71.2855C128.576 73.4085 125.295 74.277 124.426 76.979C123.944 78.523 122.979 79.7775 122.014 80.9355ZM131.181 85.7605C129.637 85.5675 129.155 85.5675 129.155 84.892C129.155 82.2865 134.269 72.0575 140.638 72.0575C142.568 72.0575 142.954 74.7595 142.954 76.4C142.954 82.576 134.655 85.1815 131.181 85.7605ZM155.667 99.8495C155.764 101.393 155.571 103.42 156.246 104.771C158.273 109.017 158.562 115.29 166.379 115.29C170.914 115.29 179.117 107.087 180.757 105.35C182.205 103.902 189.925 95.7965 190.407 95.7C191.469 93.384 196.004 91.454 196.004 89.524C196.004 88.6555 195.232 88.4625 194.364 88.4625C190.697 88.4625 183.073 95.314 179.599 99.0775C177.38 101.49 168.309 107.859 167.151 107.859C164.642 107.859 163.677 100.139 163.677 96.5685C163.677 92.226 165.607 88.4625 166.475 84.506C169.081 79.7775 174.002 73.119 177.862 73.119C178.248 73.119 178.538 73.312 178.538 73.7945C178.441 74.856 178.248 75.9175 178.248 77.0755C178.248 78.523 179.31 80.453 180.757 80.453C183.556 80.453 184.81 73.119 184.81 70.5135C184.81 66.6535 174.485 65.206 174.485 65.206C173.423 65.206 170.046 66.943 169.37 68.7765C168.888 69.9345 166.668 69.1625 166.379 70.5135C166.089 71.8645 164.738 72.0575 164.352 73.312C163.773 75.049 162.133 76.3035 161.168 78.0405C159.334 81.418 157.115 86.629 157.115 88.752C157.115 92.419 155.667 95.9895 155.667 99.8495ZM238.238 76.979C233.124 77.2685 228.492 79.295 223.667 80.9355C223.377 81.032 223.088 81.1285 222.798 81.1285C221.158 81.1285 220.868 79.102 220.482 77.558C219.421 73.9875 215.85 70.031 213.148 69.066C210.832 68.294 208.709 66.2675 206.104 66.2675C204.463 66.2675 202.919 66.2675 201.472 66.2675C195.103 66.2675 191.243 67.136 191.243 77.172C191.243 79.9705 193.945 83.927 193.945 85.9535C193.945 88.173 191.918 92.998 191.918 94.2525C191.918 96.086 191.146 97.823 191.146 99.753C191.146 109.692 197.998 114.807 197.998 114.807C199.928 116.158 202.244 116.544 204.27 117.123C205.525 116.351 208.999 114.324 209.674 114.324C209.771 114.324 209.771 114.421 209.771 114.421C216.622 107.569 217.008 105.253 218.359 103.516C219.807 101.683 218.166 98.6915 220.289 97.5335C220.675 97.1475 222.219 89.4275 222.219 88.8485C222.605 86.05 223.281 85.471 226.948 83.6375C229.746 82.2865 232.834 80.7425 236.115 80.453C239.203 80.1635 240.168 79.295 240.168 78.523C240.168 77.6545 238.914 76.786 238.431 76.786C238.335 76.786 238.238 76.8825 238.238 76.979ZM216.912 91.261C216.622 92.998 216.815 95.7 215.754 96.3755C214.017 97.5335 210.253 109.113 205.525 109.113C203.016 109.113 201.761 105.157 201.761 103.227C201.761 102.069 202.437 100.525 202.437 99.2705C202.437 98.788 202.34 98.3055 202.34 97.823C202.34 94.8315 203.016 91.9365 204.946 91.454C208.709 91.454 212.183 90.0065 215.657 88.752C217.105 88.752 216.719 90.0065 216.912 91.261ZM202.919 69.5485C209.578 69.5485 213.631 75.9175 216.043 81.1285C216.333 81.7075 216.333 82.2865 216.333 82.8655C216.333 85.085 210.736 86.1465 208.227 86.436C207.744 86.436 206.972 86.3395 206.972 85.5675C206.972 84.699 208.323 82.962 208.323 82.0935C208.323 79.874 202.437 78.4265 201.858 78.2335C201.182 77.944 200.7 77.8475 200.41 77.8475C199.735 77.8475 199.445 78.4265 198.094 79.7775C198.094 79.874 197.998 79.874 197.901 79.874C196.647 79.874 196.647 77.8475 196.647 76.979C196.647 74.1805 198.384 70.224 201.375 69.838C201.954 69.7415 202.533 69.645 202.919 69.5485ZM234.498 67.522C235.077 70.61 235.56 73.312 235.753 76.3035C235.946 77.172 236.332 77.944 236.332 78.716C236.332 78.8125 236.332 79.0055 236.332 79.102C235.463 82.769 234.691 86.7255 234.691 89.6205C234.691 90.682 235.27 91.647 235.27 92.7085C235.27 93.963 234.402 94.8315 234.402 95.6035C234.402 96.665 235.56 97.5335 235.56 98.788C235.463 99.0775 235.463 99.367 235.463 99.6565C235.463 100.815 235.849 101.972 235.849 103.034C235.849 103.613 235.367 104.481 235.367 104.867C235.367 105.253 235.656 105.832 235.753 105.929C238.455 111.236 238.648 120.597 246.561 120.597C249.745 120.597 252.544 118.184 252.544 116.641C252.544 115.772 251.868 114.903 251.579 113.745C251.579 112.394 253.316 111.719 253.316 109.982C253.316 109.692 253.219 109.306 253.219 108.92C253.219 105.639 254.474 100.332 254.86 96.086C254.86 93.384 256.114 91.7435 256.983 90.103C260.746 90.5855 263.255 89.6205 266.729 93.0945C265.475 95.893 264.896 98.4985 264.896 101.2C264.896 103.034 265.089 104.771 265.571 106.604C266.44 106.797 267.115 107.183 268.08 107.473C267.887 108.245 267.405 108.92 267.405 109.596C267.501 110.368 270.01 112.491 271.458 113.745C273.195 115.29 276.572 115.579 278.888 115.579C280.336 115.579 281.204 115.097 282.073 113.649C282.073 113.649 282.266 113.649 282.652 113.649C282.845 113.745 283.038 113.842 283.231 113.842C284.871 113.842 286.319 109.692 287.573 107.473C288.056 106.411 289.407 105.253 289.696 104.192C289.696 100.815 293.363 100.525 293.363 98.209C293.363 98.016 293.267 97.823 293.267 97.63C293.267 96.5685 293.556 95.314 294.811 94.735C295.583 93.577 295.872 90.5855 297.609 88.2695C299.153 86.243 298.767 83.348 300.022 81.3215C300.022 79.102 298.381 79.681 297.802 79.681C295.39 79.681 296.162 84.2165 295.1 86.9185C293.267 90.103 292.784 93.963 289.889 97.1475C289.117 98.3055 288.731 100.139 287.766 101.393C285.161 104.964 280.432 111.236 279.081 111.236C277.634 111.236 275.028 110.368 274.642 108.052C274.642 105.832 273.291 104.095 273.291 102.262C273.291 100.815 273.967 99.2705 273.967 97.63C273.967 96.5685 273.484 95.7965 273.484 95.0245C273.484 94.0595 274.256 93.191 274.256 92.3225C274.256 91.9365 273.774 91.261 273.774 90.9715C275.028 89.524 276.862 88.945 278.888 87.98C284.871 86.243 289.889 80.5495 289.889 75.1455C289.889 70.61 285.257 65.6885 280.529 65.6885C277.441 65.6885 274.835 68.7765 273.002 70.61C271.168 72.4435 271.072 75.1455 268.852 76.786C267.791 78.4265 267.791 87.98 265.571 87.98C263.352 87.594 261.036 87.98 259.781 86.9185C258.72 86.05 257.562 85.857 256.693 85.857C255.632 85.857 254.57 86.1465 253.412 86.436C252.737 93.6735 250.131 98.4985 248.78 104.964C248.78 105.832 247.526 106.99 247.526 107.666C247.526 108.148 247.815 108.631 247.815 109.113C247.815 111.043 246.561 112.973 246.175 114.517C245.403 114.131 245.403 113.745 245.21 113.649C245.21 113.359 245.306 113.166 245.306 113.07C245.306 113.07 245.306 112.973 245.21 112.973C243.376 110.175 242.99 106.797 242.411 103.613C242.411 101.683 244.052 100.815 244.052 99.174C244.052 98.6915 243.955 98.1125 243.569 97.437C243.569 97.1475 243.955 96.086 244.245 96.086C244.438 96.1825 244.534 96.1825 244.631 96.1825C245.596 96.1825 245.21 94.6385 245.692 93.963C245.885 93.963 245.885 93.963 245.885 93.963C245.885 94.2525 245.403 93.384 244.631 93.384C244.92 92.226 245.21 90.7785 245.692 89.524C244.92 89.138 243.955 88.945 243.376 88.559C243.762 87.015 245.885 85.9535 245.885 84.506C245.885 84.0235 245.596 83.4445 244.92 82.769C245.21 82.0935 245.403 81.1285 245.403 80.646C244.92 80.453 244.727 80.1635 244.727 79.874C244.727 79.295 245.306 78.0405 245.306 76.786C245.306 71.961 242.122 67.2325 236.911 67.2325C236.139 67.2325 235.367 67.329 234.498 67.522ZM281.687 70.61C285.064 71.4785 284.871 74.277 285.45 77.0755C283.52 81.3215 280.529 84.2165 275.221 85.9535C276.283 82.769 275.221 80.067 278.02 77.944C279.564 75.9175 279.178 72.154 281.687 70.61ZM294.146 93.577C293.953 94.349 293.567 95.6035 293.567 96.472C293.567 96.9545 294.05 97.5335 294.05 98.1125C294.05 98.3055 293.953 98.402 293.953 98.4985C292.699 100.042 292.313 103.323 292.313 105.157C292.313 106.797 292.699 108.148 292.699 109.499C292.699 110.464 292.506 111.236 292.506 112.105C292.506 115.29 293.374 118.571 295.787 118.571C299.454 118.571 301.191 110.175 301.094 110.368C302.831 107.28 302.735 103.709 304.086 100.428C306.884 93.77 306.209 91.647 307.849 89.2345C308.814 87.787 309.297 86.1465 309.972 84.6025C311.806 80.067 316.727 72.54 320.587 70.224C320.684 70.224 320.684 70.1275 320.78 70.1275C322.228 70.1275 321.07 81.804 325.123 81.804C326.57 81.804 326.088 78.909 327.825 77.6545C330.623 75.628 331.395 74.1805 331.395 70.5135C331.395 67.0395 329.948 61.8285 324.737 61.8285C321.456 61.8285 317.21 65.785 316.824 67.329C316.534 68.5835 313.832 70.996 312.192 73.2155C312.288 72.347 312.481 71.8645 312.481 71.2855C311.902 69.1625 311.613 65.6885 308.621 65.6885C307.56 65.6885 306.595 66.0745 305.533 66.0745C305.34 66.0745 305.051 65.978 304.858 65.978C304.086 65.978 301.577 70.803 301.094 71.961C299.55 75.3385 297.041 79.102 296.848 82.6725C296.848 83.734 295.787 85.5675 295.787 87.208C295.787 87.6905 295.787 88.0765 295.883 88.559C295.111 89.331 294.532 92.805 293.374 92.998L294.146 93.577ZM306.498 85.471H306.209L306.402 85.1815L306.498 85.471ZM335.214 92.5155C335.214 94.6385 335.6 96.7615 335.6 98.981C335.6 101.779 338.109 105.253 338.978 107.183C340.425 110.464 344.575 114.035 347.759 114.035C349.979 114.035 353.742 112.684 354.804 110.754C355.286 109.306 357.216 107.955 357.216 106.894C357.409 105.639 359.05 104.288 359.822 102.648C360.304 101.779 360.015 100.621 360.883 100.042C361.945 99.174 362.91 96.279 363.199 95.6035C363.682 93.577 366.48 91.261 366.48 89.8135C366.48 88.6555 365.419 88.0765 364.164 88.0765C362.62 88.0765 361.269 89.2345 360.883 91.1645C359.532 97.437 355.962 101.683 351.812 106.604C351.619 106.797 351.426 106.797 351.233 106.797C348.724 106.797 348.628 96.1825 348.628 94.349C348.628 94.156 348.628 93.963 348.724 93.8665C349.4 92.1295 348.821 90.296 349.496 88.559C349.689 86.243 349.979 83.927 349.979 81.5145C349.979 78.0405 348.242 70.8995 345.636 70.1275C344.189 69.7415 342.355 69.066 341.004 69.066C338.013 69.066 335.214 90.103 335.214 92.5155ZM342.452 55.2665C342.452 57.0035 343.127 59.995 345.443 59.995C347.952 59.995 349.11 57.3895 349.11 55.17C349.11 52.7575 346.505 52.854 344.285 52.3715C342.645 52.3715 342.452 54.3015 342.452 55.2665ZM395.012 123.975C396.46 122.72 397.618 119.536 397.907 119.343C398.872 118.86 398.872 118.184 398.872 117.123C398.872 115.869 400.802 114.71 400.802 112.78C400.802 112.201 400.609 111.526 400.609 110.947C400.609 111.043 401.864 105.929 401.96 105.832C403.118 104.578 402.829 102.648 404.373 101.104C405.241 100.428 404.566 98.981 405.145 98.1125C406.399 97.3405 409.584 92.612 409.584 90.875C409.584 90.1995 409.101 89.8135 408.426 89.8135C404.662 89.8135 404.083 94.349 402.25 96.279C401.285 97.3405 401.092 98.1125 400.995 99.4635C400.995 100.139 399.741 100.042 399.451 100.911C397.907 104.095 394.337 113.07 393.082 113.07C392.117 113.07 392.31 107.473 392.31 104.578C392.31 101.49 392.407 98.595 393.179 97.244C393.179 97.244 393.179 97.244 393.179 97.1475C393.179 96.9545 392.793 96.1825 392.793 95.6035C393.275 95.2175 394.337 94.928 394.337 94.349C394.337 93.8665 393.275 93.0945 393.275 92.419C393.275 92.033 393.565 91.454 393.565 91.068C393.565 90.682 393.372 90.296 393.372 90.0065C393.372 88.366 395.398 87.6905 395.398 85.7605C395.398 76.3035 395.784 72.926 391.345 72.926C389.705 72.926 387.678 73.2155 386.617 74.7595C386.134 75.5315 382.467 77.0755 380.923 78.909C379.765 80.26 378.8 82.0935 377.739 83.2515C373.879 85.9535 370.694 93.384 368.282 93.384C368.089 93.0945 367.896 92.9015 367.896 92.612C367.896 90.682 369.44 88.559 369.729 86.7255C369.922 82.4795 370.115 78.2335 370.115 73.9875C370.115 71.768 370.019 69.3555 367.124 69.3555C365.387 69.3555 362.395 70.5135 362.395 71.8645C362.395 75.242 361.044 78.909 361.044 82.19C361.044 82.769 361.141 83.2515 361.141 83.734C361.141 84.4095 360.658 84.892 360.658 85.471C360.658 86.243 361.044 87.015 361.044 87.787C361.044 90.103 360.851 91.9365 360.851 94.6385C360.851 98.8845 361.237 104.192 365.001 104.192C370.598 104.192 373.01 99.946 375.905 95.507C377.256 93.4805 380.151 89.0415 380.344 87.401C380.634 84.9885 386.134 79.7775 387.003 79.7775C387.196 79.7775 387.292 80.3565 387.292 80.5495C387.292 81.418 386.906 82.4795 386.906 83.348C386.906 84.892 387.292 86.436 387.292 87.98C387.292 88.752 387.196 91.068 386.038 91.84C385.845 92.033 385.652 92.226 385.652 92.419C385.652 92.9015 386.231 93.191 386.231 93.77C386.038 94.928 385.459 96.1825 385.459 97.244C385.459 98.016 386.424 98.402 386.424 98.981C386.424 99.2705 386.231 99.6565 386.231 99.946C386.231 100.332 386.327 100.621 386.327 101.007C386.327 101.393 384.59 104.095 384.59 105.639C384.59 106.894 384.976 108.052 384.976 109.403C384.976 110.271 384.88 111.236 384.88 112.201C385.073 117.316 386.81 124.457 391.924 124.457C392.696 123.975 393.082 123.782 393.565 123.782C393.854 123.782 394.337 123.878 395.012 123.975ZM387.968 94.8315C387.871 95.0245 387.775 95.121 387.775 95.314C387.582 95.121 387.582 95.0245 387.582 94.735C387.678 94.6385 387.775 94.6385 387.775 94.542C387.871 94.6385 387.968 94.735 387.968 94.8315ZM391.442 109.596L391.538 109.885H391.345L391.442 109.596ZM440.058 110.078C440.058 110.175 440.058 110.175 440.058 110.175C440.058 109.885 440.83 108.438 441.023 108.245C441.699 107.473 441.506 106.315 442.085 105.639C445.848 100.718 445.462 102.841 446.813 101.49C448.55 100.428 448.743 99.367 451.735 97.63C453.086 96.858 454.823 97.1475 455.981 95.893C456.656 95.2175 459.358 96.086 459.358 94.0595C459.358 91.9365 455.981 90.875 455.016 90.875C452.603 90.875 447.875 93.2875 447.296 93.77C446.813 94.2525 446.234 94.4455 445.655 94.4455C444.883 94.4455 444.497 94.349 444.497 93.0945C444.497 91.84 445.848 90.682 445.848 89.4275C445.848 83.927 449.515 77.4615 449.515 73.6015C449.515 69.066 443.918 67.908 441.023 67.908C439.576 67.908 440.251 68.5835 438.418 70.417C438.032 70.996 437.646 71.2855 437.163 71.2855C435.619 71.2855 434.075 69.066 431.952 68.5835C430.119 68.1975 428.478 67.908 426.548 67.908C421.723 67.908 414.968 73.312 414.003 76.1105C413.328 78.0405 410.722 79.1985 410.143 81.1285C409.564 82.962 407.538 83.4445 406.959 84.9885C406.283 86.629 405.511 88.366 405.125 90.103C404.739 91.647 403.774 92.805 403.774 95.314C403.774 101.007 407.248 104.481 413.135 104.481C416.416 103.806 419.504 97.7265 419.89 96.086C420.855 94.6385 421.53 94.4455 422.592 93.384C423.46 92.5155 423.75 90.9715 425.197 90.489C426.838 90.0065 427.706 87.3045 429.829 86.7255C430.215 86.5325 430.408 85.9535 430.698 85.5675L430.601 85.471V85.664C431.566 85.1815 432.145 82.2865 432.724 82.2865C432.821 82.383 433.014 82.4795 433.11 82.4795C435.04 82.4795 436.005 81.5145 436.681 79.681C436.777 79.3915 436.97 79.295 437.26 79.295C438.032 79.295 437.935 81.032 437.935 81.997C437.935 84.0235 437.26 86.05 437.26 87.98C437.26 88.8485 437.453 89.717 437.453 90.489C437.453 91.84 436.681 93.2875 436.681 94.2525C436.681 95.0245 437.26 95.893 437.26 96.858C437.26 99.4635 434.847 103.613 434.075 105.736C433.786 105.639 433.496 105.543 433.207 105.543C432.338 105.543 429.057 110.175 428.864 110.85C427.996 113.166 424.522 114.421 423.653 117.606C423.557 117.799 423.46 118.088 423.267 118.184C421.434 119.343 420.276 120.887 419.697 123.01C418.635 125.036 417.477 125.808 416.995 128.028C416.898 128.317 416.705 128.8 416.512 128.993C414.486 130.344 415.837 133.046 414.1 134.397C412.556 135.555 410.529 143.661 410.529 144.915C410.529 147.135 409.854 149.258 409.854 151.477C409.854 161.32 412.845 163.057 417.96 166.435C418.925 167.014 420.083 167.11 421.144 167.11C425.101 167.11 428.671 164.215 428.671 159.873C428.671 159.101 429.636 158.425 429.636 157.653C429.636 157.46 429.443 157.074 429.443 156.785C429.443 155.144 431.566 152.539 431.663 150.223C431.663 149.547 432.435 149.161 432.435 148.486C432.435 148.1 432.049 147.714 432.049 147.328C432.049 146.556 434.365 143.371 434.365 141.634C434.268 141.538 434.268 141.345 434.268 141.248C434.268 139.897 436.584 133.142 436.584 130.633C436.584 129.765 436.102 129.089 436.102 127.835C436.102 126.484 437.646 125.519 437.646 125.229C437.742 124.457 438.225 123.685 438.225 122.817C438.225 122.431 437.839 121.948 437.839 121.466C437.839 120.404 439.19 119.922 439.19 119.15C439.19 118.667 438.128 118.474 438.128 117.992C438.128 117.22 439.286 116.544 439.286 115.965C439.286 115.676 438.997 115.386 438.321 114.903C439.479 114.517 441.023 112.201 441.023 111.236C441.023 110.85 440.83 110.368 440.058 110.078ZM429.25 147.521C426.548 149.74 427.32 152.828 425.583 154.951C424.908 155.82 425.39 157.074 424.522 157.846C423.75 158.618 423.171 159.583 422.399 160.548C421.241 160.838 419.986 161.224 418.732 161.513C415.933 160.355 415.258 156.592 415.258 153.793C415.258 139.318 423.846 128.993 430.408 117.606C430.891 116.641 432.917 114.807 433.303 114.807C433.593 114.807 434.461 115.386 434.461 115.772C434.461 119.15 433.11 124.94 432.724 125.615C432.531 125.905 432.435 126.098 432.435 126.194C432.435 126.484 433.303 126.966 433.303 127.449C433.303 128.51 432.145 129.379 432.145 131.116C432.145 135.265 430.022 138.932 430.022 142.599C430.022 143.661 428.864 144.722 428.864 145.591C428.864 145.977 428.961 146.556 429.25 147.521ZM434.751 74.856C434.461 77.365 432.531 76.3035 431.759 77.6545C431.084 78.909 430.022 79.5845 428.961 80.453C427.417 81.7075 425.583 84.699 424.618 85.1815C421.144 86.9185 418.346 91.3575 414.389 93.77C414.389 93.77 414.293 93.8665 414.196 93.8665C413.617 93.8665 413.81 93.577 413.617 92.998C413.617 92.3225 416.319 88.6555 417.188 87.594C418.635 85.857 420.179 83.6375 420.179 82.6725C420.179 81.804 431.47 73.698 433.207 73.698C434.075 73.698 434.268 74.3735 434.751 74.856ZM436.97 121.08C437.067 121.176 437.067 121.176 437.067 121.273C437.067 121.466 436.97 121.659 436.874 121.659C436.874 121.659 436.584 121.466 436.584 121.369C436.584 121.176 436.681 121.08 436.97 121.08ZM426.838 84.892C426.838 85.085 426.741 85.1815 426.645 85.1815C426.452 85.1815 426.452 84.9885 426.452 84.7955C426.548 84.699 426.645 84.699 426.645 84.6025C426.741 84.699 426.741 84.7955 426.838 84.892ZM430.698 85.5675L430.601 85.471V85.664L430.698 85.5675Z" fill="#544332"/>
</svg>
